ffmpeg started on 2025-05-12 at 21:02:51
Report written to "D:\Convert\FFMetrics\reports\psnr_report-6.txt"
Log level: 32
Command line:
ffmpeg -hide_banner -nostdin -i "G:\\\xc0\xed\xe8\xec\xe5\\\xce\xed\xe3\xee\xe8\xed\xe3\xe8\\!_35_\xcb\xe5\xf2\xee_2024\\DreamCast-1\\\xcf\xf0\xe8\xea\xeb\xfe\xf7\xe5\xed\xe8\xff \xe2 \xe4\xf0\xf3\xe3\xee\xec \xec\xe8\xf0\xe5 - \xc2\xee\xf1\xef\xe8\xf2\xfb\xe2\xe0\xf2\xfc \xe4\xe5\xf2\xe5\xe9 \xe1\xf3\xe4\xf3\xf7\xe8 \xe0\xe2\xe0\xed\xf2\xfe\xf0\xe8\xf1\xf2\xee\xec\\[DC] Iseyuru - 12_Telegram_HEVC.mkv" -i "G:\\\xc0\xed\xe8\xec\xe5\\\xce\xed\xe3\xee\xe8\xed\xe3\xe8\\!_35_\xcb\xe5\xf2\xee_2024\\DreamCast-1\\\xcf\xf0\xe8\xea\xeb\xfe\xf7\xe5\xed\xe8\xff \xe2 \xe4\xf0\xf3\xe3\xee\xec \xec\xe8\xf0\xe5 - \xc2\xee\xf1\xef\xe8\xf2\xfb\xe2\xe0\xf2\xfc \xe4\xe5\xf2\xe5\xe9 \xe1\xf3\xe4\xf3\xf7\xe8 \xe0\xe2\xe0\xed\xf2\xfe\xf0\xe8\xf1\xf2\xee\xec\\[DC] Iseyuru - 12_Telegram.mp4" -lavfi "[0:v]settb=AVTB,setpts=PTS-STARTPTS,format=pix_fmts=yuv420p10,fps=24000/1001,scale=1920:1080:flags=bicubic[main];[1:v]settb=AVTB,setpts=PTS-STARTPTS,format=pix_fmts=yuv420p,fps=24000/1001,scale=1920:1080:flags=bicubic[ref];[main][ref]psnr=eof_action=endall:stats_file='D\\:/Convert/FFMetrics/logs/psnr_logfile-6.txt'" -f null -
Input #0, matroska,webm, from 'G:\Аниме\Онгоинги\!_35_Лето_2024\DreamCast-1\Приключения в другом мире - Воспитывать детей будучи авантюристом\[DC] Iseyuru - 12_Telegram_HEVC.mkv':
  Metadata:
    COMPATIBLE_BRANDS: isomiso2avc1mp41
    MAJOR_BRAND     : isom
    MINOR_VERSION   : 512
    ENCODER         : Lavf61.7.100
  Duration: 00:23:56.63, start: -0.021000, bitrate: 958 kb/s
  Stream #0:0: Video: hevc (Main 10), yuv420p10le(tv, bt709, progressive), 1920x1080 [SAR 1:1 DAR 16:9], 23.98 fps, 23.98 tbr, 1k tbn (default)
      Metadata:
        HANDLER_NAME    : VideoHandler
        VENDOR_ID       : [0][0][0][0]
        ENCODER         : Lavc61.19.100 libx265
        BPS             : 761198
        DURATION        : 00:23:56.476708333
        NUMBER_OF_FRAMES: 34441
        NUMBER_OF_BYTES : 136680434
        _STATISTICS_WRITING_APP: mkvpropedit v66.0.0 ('Josie') 64-bit
        _STATISTICS_WRITING_DATE_UTC: 2025-05-10 14:40:06
        _STATISTICS_TAGS: BPS DURATION NUMBER_OF_FRAMES NUMBER_OF_BYTES
  Stream #0:1: Audio: aac (LC), 48000 Hz, stereo, fltp (default)
      Metadata:
        HANDLER_NAME    : SoundHandler
        VENDOR_ID       : [0][0][0][0]
        ENCODER         : Lavc61.19.100 aac
        BPS             : 193729
        DURATION        : 00:23:56.629000000
        NUMBER_OF_FRAMES: 67343
        NUMBER_OF_BYTES : 34789671
        _STATISTICS_WRITING_APP: mkvpropedit v66.0.0 ('Josie') 64-bit
        _STATISTICS_WRITING_DATE_UTC: 2025-05-10 14:40:06
        _STATISTICS_TAGS: BPS DURATION NUMBER_OF_FRAMES NUMBER_OF_BYTES
Input #1, mov,mp4,m4a,3gp,3g2,mj2, from 'G:\Аниме\Онгоинги\!_35_Лето_2024\DreamCast-1\Приключения в другом мире - Воспитывать детей будучи авантюристом\[DC] Iseyuru - 12_Telegram.mp4':
  Metadata:
    major_brand     : isom
    minor_version   : 512
    compatible_brands: isomiso2avc1mp41
    encoder         : Lavf61.1.100
  Duration: 00:23:56.58, start: 0.000000, bitrate: 3492 kb/s
  Stream #1:0[0x1](und): Video: h264 (High) (avc1 / 0x31637661), yuv420p(tv, bt709, progressive), 1920x1080 [SAR 1:1 DAR 16:9], 3345 kb/s, 23.98 fps, 23.98 tbr, 24k tbn (default)
      Metadata:
        handler_name    : VideoHandler
        vendor_id       : [0][0][0][0]
        encoder         : Lavc61.3.100 h264_qsv
  Stream #1:1[0x2](und): Audio: aac (HE-AACv2) (mp4a / 0x6134706D), 48000 Hz, stereo, fltp, 144 kb/s (default)
      Metadata:
        handler_name    : SoundHandler
        vendor_id       : [0][0][0][0]
Stream mapping:
  Stream #0:0 (hevc) -> settb:default
  Stream #1:0 (h264) -> settb:default
  psnr:default -> Stream #0:0 (wrapped_avframe)
  Stream #0:1 -> #0:1 (aac (native) -> pcm_s16le (native))
Output #0, null, to 'pipe:':
  Metadata:
    COMPATIBLE_BRANDS: isomiso2avc1mp41
    MAJOR_BRAND     : isom
    MINOR_VERSION   : 512
    encoder         : Lavf61.7.100
  Stream #0:0: Video: wrapped_avframe, yuv420p10le(tv, bt709, progressive), 1920x1080 [SAR 1:1 DAR 16:9], q=2-31, 200 kb/s, 23.98 fps, 23.98 tbn
      Metadata:
        encoder         : Lavc61.19.100 wrapped_avframe
  Stream #0:1: Audio: pcm_s16le, 48000 Hz, stereo, s16, 1536 kb/s (default)
      Metadata:
        HANDLER_NAME    : SoundHandler
        VENDOR_ID       : [0][0][0][0]
        _STATISTICS_TAGS: BPS DURATION NUMBER_OF_FRAMES NUMBER_OF_BYTES
        BPS             : 193729
        DURATION        : 00:23:56.629000000
        NUMBER_OF_FRAMES: 67343
        NUMBER_OF_BYTES : 34789671
        _STATISTICS_WRITING_APP: mkvpropedit v66.0.0 ('Josie') 64-bit
        _STATISTICS_WRITING_DATE_UTC: 2025-05-10 14:40:06
        encoder         : Lavc61.19.100 pcm_s16le
frame=  154 fps=0.0 q=-0.0 size=N/A time=00:00:06.42 bitrate=N/A speed=12.5x    frame=  395 fps=388 q=-0.0 size=N/A time=00:00:16.47 bitrate=N/A speed=16.2x    frame=  648 fps=421 q=-0.0 size=N/A time=00:00:27.02 bitrate=N/A speed=17.5x    frame=  889 fps=434 q=-0.0 size=N/A time=00:00:37.07 bitrate=N/A speed=18.1x    frame= 1158 fps=450 q=-0.0 size=N/A time=00:00:48.29 bitrate=N/A speed=18.8x    frame= 1420 fps=461 q=-0.0 size=N/A time=00:00:59.22 bitrate=N/A speed=19.2x    frame= 1680 fps=466 q=-0.0 size=N/A time=00:01:10.07 bitrate=N/A speed=19.5x    frame= 1938 fps=470 q=-0.0 size=N/A time=00:01:20.83 bitrate=N/A speed=19.6x    frame= 2181 fps=471 q=-0.0 size=N/A time=00:01:30.96 bitrate=N/A speed=19.6x    frame= 2390 fps=464 q=-0.0 size=N/A time=00:01:39.68 bitrate=N/A speed=19.3x    frame= 2545 fps=450 q=-0.0 size=N/A time=00:01:46.14 bitrate=N/A speed=18.8x    frame= 2674 fps=432 q=-0.0 size=N/A time=00:01:51.52 bitrate=N/A speed=  18x    frame= 2872 fps=429 q=-0.0 size=N/A time=00:01:59.78 bitrate=N/A speed=17.9x    frame= 3095 fps=429 q=-0.0 size=N/A time=00:02:09.08 bitrate=N/A speed=17.9x    frame= 3280 fps=425 q=-0.0 size=N/A time=00:02:16.80 bitrate=N/A speed=17.7x    frame= 3480 fps=422 q=-0.0 size=N/A time=00:02:25.14 bitrate=N/A speed=17.6x    frame= 3675 fps=419 q=-0.0 size=N/A time=00:02:33.27 bitrate=N/A speed=17.5x    frame= 3899 fps=421 q=-0.0 size=N/A time=00:02:42.62 bitrate=N/A speed=17.5x    frame= 4072 fps=416 q=-0.0 size=N/A time=00:02:49.83 bitrate=N/A speed=17.3x    frame= 4295 fps=417 q=-0.0 size=N/A time=00:02:59.13 bitrate=N/A speed=17.4x    frame= 4528 fps=418 q=-0.0 size=N/A time=00:03:08.85 bitrate=N/A speed=17.4x    frame= 4771 fps=421 q=-0.0 size=N/A time=00:03:18.99 bitrate=N/A speed=17.5x    frame= 5019 fps=423 q=-0.0 size=N/A time=00:03:29.33 bitrate=N/A speed=17.7x    frame= 5255 fps=425 q=-0.0 size=N/A time=00:03:39.17 bitrate=N/A speed=17.7x    frame= 5498 fps=427 q=-0.0 size=N/A time=00:03:49.31 bitrate=N/A speed=17.8x    frame= 5747 fps=429 q=-0.0 size=N/A time=00:03:59.69 bitrate=N/A speed=17.9x    frame= 6012 fps=432 q=-0.0 size=N/A time=00:04:10.75 bitrate=N/A speed=  18x    frame= 6258 fps=434 q=-0.0 size=N/A time=00:04:21.01 bitrate=N/A speed=18.1x    frame= 6513 fps=436 q=-0.0 size=N/A time=00:04:31.64 bitrate=N/A speed=18.2x    frame= 6737 fps=436 q=-0.0 size=N/A time=00:04:40.98 bitrate=N/A speed=18.2x    frame= 6987 fps=437 q=-0.0 size=N/A time=00:04:51.41 bitrate=N/A speed=18.2x    frame= 7217 fps=438 q=-0.0 size=N/A time=00:05:01.00 bitrate=N/A speed=18.3x    frame= 7467 fps=439 q=-0.0 size=N/A time=00:05:11.43 bitrate=N/A speed=18.3x    frame= 7691 fps=439 q=-0.0 size=N/A time=00:05:20.77 bitrate=N/A speed=18.3x    frame= 7917 fps=439 q=-0.0 size=N/A time=00:05:30.20 bitrate=N/A speed=18.3x    frame= 8138 fps=439 q=-0.0 size=N/A time=00:05:39.42 bitrate=N/A speed=18.3x    frame= 8351 fps=438 q=-0.0 size=N/A time=00:05:48.30 bitrate=N/A speed=18.3x    frame= 8579 fps=438 q=-0.0 size=N/A time=00:05:57.81 bitrate=N/A speed=18.3x    frame= 8780 fps=437 q=-0.0 size=N/A time=00:06:06.19 bitrate=N/A speed=18.2x    frame= 9005 fps=437 q=-0.0 size=N/A time=00:06:15.58 bitrate=N/A speed=18.2x    frame= 9165 fps=434 q=-0.0 size=N/A time=00:06:22.25 bitrate=N/A speed=18.1x    frame= 9397 fps=434 q=-0.0 size=N/A time=00:06:31.93 bitrate=N/A speed=18.1x    frame= 9640 fps=435 q=-0.0 size=N/A time=00:06:42.06 bitrate=N/A speed=18.1x    frame= 9819 fps=433 q=-0.0 size=N/A time=00:06:49.53 bitrate=N/A speed=18.1x    frame=10042 fps=433 q=-0.0 size=N/A time=00:06:58.83 bitrate=N/A speed=18.1x    frame=10281 fps=434 q=-0.0 size=N/A time=00:07:08.80 bitrate=N/A speed=18.1x    frame=10521 fps=434 q=-0.0 size=N/A time=00:07:18.81 bitrate=N/A speed=18.1x    frame=10757 fps=435 q=-0.0 size=N/A time=00:07:28.65 bitrate=N/A speed=18.1x    frame=10939 fps=433 q=-0.0 size=N/A time=00:07:36.24 bitrate=N/A speed=18.1x    frame=11162 fps=433 q=-0.0 size=N/A time=00:07:45.54 bitrate=N/A speed=18.1x    frame=11419 fps=434 q=-0.0 size=N/A time=00:07:56.26 bitrate=N/A speed=18.1x    frame=11688 fps=436 q=-0.0 size=N/A time=00:08:07.48 bitrate=N/A speed=18.2x    frame=11937 fps=437 q=-0.0 size=N/A time=00:08:17.87 bitrate=N/A speed=18.2x    frame=12173 fps=437 q=-0.0 size=N/A time=00:08:27.71 bitrate=N/A speed=18.2x    frame=12428 fps=438 q=-0.0 size=N/A time=00:08:38.35 bitrate=N/A speed=18.3x    frame=12675 fps=439 q=-0.0 size=N/A time=00:08:48.65 bitrate=N/A speed=18.3x    frame=12918 fps=440 q=-0.0 size=N/A time=00:08:58.78 bitrate=N/A speed=18.3x    frame=13138 fps=440 q=-0.0 size=N/A time=00:09:07.96 bitrate=N/A speed=18.3x    frame=13353 fps=439 q=-0.0 size=N/A time=00:09:16.93 bitrate=N/A speed=18.3x    frame=13563 fps=438 q=-0.0 size=N/A time=00:09:25.69 bitrate=N/A speed=18.3x    frame=13786 fps=438 q=-0.0 size=N/A time=00:09:34.99 bitrate=N/A speed=18.3x    frame=13985 fps=438 q=-0.0 size=N/A time=00:09:43.29 bitrate=N/A speed=18.2x    frame=14201 fps=437 q=-0.0 size=N/A time=00:09:52.30 bitrate=N/A speed=18.2x    frame=14417 fps=437 q=-0.0 size=N/A time=00:10:01.30 bitrate=N/A speed=18.2x    frame=14634 fps=437 q=-0.0 size=N/A time=00:10:10.35 bitrate=N/A speed=18.2x    frame=14884 fps=437 q=-0.0 size=N/A time=00:10:20.78 bitrate=N/A speed=18.2x    frame=15130 fps=438 q=-0.0 size=N/A time=00:10:31.04 bitrate=N/A speed=18.3x    frame=15346 fps=438 q=-0.0 size=N/A time=00:10:40.05 bitrate=N/A speed=18.3x    frame=15581 fps=438 q=-0.0 size=N/A time=00:10:49.85 bitrate=N/A speed=18.3x    frame=15775 fps=437 q=-0.0 size=N/A time=00:10:57.94 bitrate=N/A speed=18.2x    frame=15946 fps=436 q=-0.0 size=N/A time=00:11:05.08 bitrate=N/A speed=18.2x    frame=16148 fps=435 q=-0.0 size=N/A time=00:11:13.50 bitrate=N/A speed=18.1x    frame=16407 fps=436 q=-0.0 size=N/A time=00:11:24.30 bitrate=N/A speed=18.2x    frame=16639 fps=436 q=-0.0 size=N/A time=00:11:33.98 bitrate=N/A speed=18.2x    frame=16835 fps=435 q=-0.0 size=N/A time=00:11:42.15 bitrate=N/A speed=18.2x    frame=17001 fps=434 q=-0.0 size=N/A time=00:11:49.08 bitrate=N/A speed=18.1x    frame=17197 fps=433 q=-0.0 size=N/A time=00:11:57.25 bitrate=N/A speed=18.1x    frame=17420 fps=433 q=-0.0 size=N/A time=00:12:06.55 bitrate=N/A speed=18.1x    frame=17666 fps=434 q=-0.0 size=N/A time=00:12:16.81 bitrate=N/A speed=18.1x    frame=17924 fps=435 q=-0.0 size=N/A time=00:12:27.58 bitrate=N/A speed=18.1x    frame=18202 fps=436 q=-0.0 size=N/A time=00:12:39.17 bitrate=N/A speed=18.2x    frame=18465 fps=437 q=-0.0 size=N/A time=00:12:50.14 bitrate=N/A speed=18.2x    frame=18713 fps=437 q=-0.0 size=N/A time=00:13:00.48 bitrate=N/A speed=18.2x    frame=18970 fps=438 q=-0.0 size=N/A time=00:13:11.20 bitrate=N/A speed=18.3x    frame=19224 fps=439 q=-0.0 size=N/A time=00:13:21.80 bitrate=N/A speed=18.3x    frame=19457 fps=439 q=-0.0 size=N/A time=00:13:31.51 bitrate=N/A speed=18.3x    frame=19713 fps=440 q=-0.0 size=N/A time=00:13:42.19 bitrate=N/A speed=18.3x    frame=19973 fps=440 q=-0.0 size=N/A time=00:13:53.04 bitrate=N/A speed=18.4x    frame=20210 fps=440 q=-0.0 size=N/A time=00:14:02.92 bitrate=N/A speed=18.4x    frame=20458 fps=441 q=-0.0 size=N/A time=00:14:13.26 bitrate=N/A speed=18.4x    frame=20728 fps=442 q=-0.0 size=N/A time=00:14:24.53 bitrate=N/A speed=18.4x    frame=20967 fps=442 q=-0.0 size=N/A time=00:14:34.49 bitrate=N/A speed=18.4x    frame=21207 fps=442 q=-0.0 size=N/A time=00:14:44.50 bitrate=N/A speed=18.4x    frame=21455 fps=443 q=-0.0 size=N/A time=00:14:54.85 bitrate=N/A speed=18.5x    frame=21689 fps=443 q=-0.0 size=N/A time=00:15:04.61 bitrate=N/A speed=18.5x    frame=21936 fps=443 q=-0.0 size=N/A time=00:15:14.91 bitrate=N/A speed=18.5x    frame=22170 fps=443 q=-0.0 size=N/A time=00:15:24.67 bitrate=N/A speed=18.5x    frame=22415 fps=444 q=-0.0 size=N/A time=00:15:34.89 bitrate=N/A speed=18.5x    frame=22665 fps=444 q=-0.0 size=N/A time=00:15:45.31 bitrate=N/A speed=18.5x    frame=22904 fps=444 q=-0.0 size=N/A time=00:15:55.28 bitrate=N/A speed=18.5x    frame=23146 fps=444 q=-0.0 size=N/A time=00:16:05.38 bitrate=N/A speed=18.5x    frame=23382 fps=445 q=-0.0 size=N/A time=00:16:15.22 bitrate=N/A speed=18.5x    frame=23625 fps=445 q=-0.0 size=N/A time=00:16:25.35 bitrate=N/A speed=18.5x    frame=23890 fps=445 q=-0.0 size=N/A time=00:16:36.41 bitrate=N/A speed=18.6x    frame=24141 fps=446 q=-0.0 size=N/A time=00:16:46.88 bitrate=N/A speed=18.6x    frame=24396 fps=446 q=-0.0 size=N/A time=00:16:57.51 bitrate=N/A speed=18.6x    frame=24643 fps=447 q=-0.0 size=N/A time=00:17:07.81 bitrate=N/A speed=18.6x    frame=24907 fps=447 q=-0.0 size=N/A time=00:17:18.82 bitrate=N/A speed=18.7x    frame=25159 fps=448 q=-0.0 size=N/A time=00:17:29.33 bitrate=N/A speed=18.7x    frame=25419 fps=448 q=-0.0 size=N/A time=00:17:40.18 bitrate=N/A speed=18.7x    frame=25654 fps=448 q=-0.0 size=N/A time=00:17:49.98 bitrate=N/A speed=18.7x    frame=25927 fps=449 q=-0.0 size=N/A time=00:18:01.37 bitrate=N/A speed=18.7x    frame=26160 fps=449 q=-0.0 size=N/A time=00:18:11.09 bitrate=N/A speed=18.7x    frame=26404 fps=449 q=-0.0 size=N/A time=00:18:21.26 bitrate=N/A speed=18.7x    frame=26674 fps=450 q=-0.0 size=N/A time=00:18:32.52 bitrate=N/A speed=18.8x    frame=26896 fps=449 q=-0.0 size=N/A time=00:18:41.78 bitrate=N/A speed=18.7x    frame=27108 fps=449 q=-0.0 size=N/A time=00:18:50.62 bitrate=N/A speed=18.7x    frame=27338 fps=449 q=-0.0 size=N/A time=00:19:00.22 bitrate=N/A speed=18.7x    frame=27604 fps=450 q=-0.0 size=N/A time=00:19:11.31 bitrate=N/A speed=18.8x    frame=27835 fps=450 q=-0.0 size=N/A time=00:19:20.95 bitrate=N/A speed=18.8x    frame=28080 fps=450 q=-0.0 size=N/A time=00:19:31.17 bitrate=N/A speed=18.8x    frame=28312 fps=450 q=-0.0 size=N/A time=00:19:40.84 bitrate=N/A speed=18.8x    frame=28533 fps=450 q=-0.0 size=N/A time=00:19:50.06 bitrate=N/A speed=18.8x    frame=28797 fps=450 q=-0.0 size=N/A time=00:20:01.07 bitrate=N/A speed=18.8x    frame=29006 fps=450 q=-0.0 size=N/A time=00:20:09.79 bitrate=N/A speed=18.8x    frame=29263 fps=450 q=-0.0 size=N/A time=00:20:20.51 bitrate=N/A speed=18.8x    frame=29522 fps=451 q=-0.0 size=N/A time=00:20:31.31 bitrate=N/A speed=18.8x    frame=29779 fps=451 q=-0.0 size=N/A time=00:20:42.03 bitrate=N/A speed=18.8x    frame=29995 fps=451 q=-0.0 size=N/A time=00:20:51.04 bitrate=N/A speed=18.8x    frame=30233 fps=451 q=-0.0 size=N/A time=00:21:00.96 bitrate=N/A speed=18.8x    frame=30466 fps=451 q=-0.0 size=N/A time=00:21:10.72 bitrate=N/A speed=18.8x    frame=30719 fps=451 q=-0.0 size=N/A time=00:21:21.23 bitrate=N/A speed=18.8x    frame=30971 fps=451 q=-0.0 size=N/A time=00:21:31.74 bitrate=N/A speed=18.8x    frame=31227 fps=452 q=-0.0 size=N/A time=00:21:42.42 bitrate=N/A speed=18.8x    frame=31474 fps=452 q=-0.0 size=N/A time=00:21:52.72 bitrate=N/A speed=18.9x    frame=31708 fps=452 q=-0.0 size=N/A time=00:22:02.48 bitrate=N/A speed=18.9x    frame=31940 fps=452 q=-0.0 size=N/A time=00:22:12.16 bitrate=N/A speed=18.9x    frame=32166 fps=452 q=-0.0 size=N/A time=00:22:21.59 bitrate=N/A speed=18.8x    frame=32332 fps=451 q=-0.0 size=N/A time=00:22:28.51 bitrate=N/A speed=18.8x    frame=32530 fps=450 q=-0.0 size=N/A time=00:22:36.77 bitrate=N/A speed=18.8x    frame=32762 fps=450 q=-0.0 size=N/A time=00:22:46.44 bitrate=N/A speed=18.8x    frame=32947 fps=450 q=-0.0 size=N/A time=00:22:54.16 bitrate=N/A speed=18.8x    frame=33142 fps=449 q=-0.0 size=N/A time=00:23:02.29 bitrate=N/A speed=18.7x    frame=33345 fps=449 q=-0.0 size=N/A time=00:23:10.76 bitrate=N/A speed=18.7x    frame=33554 fps=449 q=-0.0 size=N/A time=00:23:19.48 bitrate=N/A speed=18.7x    frame=33753 fps=448 q=-0.0 size=N/A time=00:23:27.78 bitrate=N/A speed=18.7x    frame=33933 fps=448 q=-0.0 size=N/A time=00:23:35.28 bitrate=N/A speed=18.7x    frame=34137 fps=447 q=-0.0 size=N/A time=00:23:43.79 bitrate=N/A speed=18.7x    frame=34317 fps=447 q=-0.0 size=N/A time=00:23:51.30 bitrate=N/A speed=18.6x    [Parsed_psnr_10 @ 0000020689288c00] PSNR y:49.936832 u:50.196327 v:50.438829 average:50.059543 min:42.800780 max:inf
[out#0/null @ 0000020686874e00] video:14799KiB audio:269372KiB subtitle:0KiB other streams:0KiB global headers:0KiB muxing overhead: unknown
frame=34441 fps=447 q=-0.0 Lsize=N/A time=00:23:56.47 bitrate=N/A speed=18.6x    
